<svg version="1.1" xmlns="http://www.w3.org/2000/svg" xmlns:xlink="http://www.w3.org/1999/xlink" width="48" height="48"><defs><linearGradient x1="16.44983" y1="14.22989" x2="52.76337" y2="54.98331" gradientUnits="userSpaceOnUse" id="color-1"><stop offset="0" stop-color="#000000" stop-opacity="0.3"></stop><stop offset="1" stop-color="#000000" stop-opacity="0"></stop></linearGradient><filter id="dropshadow-base"><feColorMatrix type="matrix" values="0 0 0 0 0  0 0 0 0 0  0 0 0 0 0  0 0 0 .8 0"></feColorMatrix> <feOffset dx="0" dy="1"></feOffset> <feGaussianBlur stdDeviation="1"></feGaussianBlur> <feComposite in="SourceGraphic"></feComposite></filter><filter id="dropshadow-banner" x="-10%" y="-10%" width="120%" height="130%"><feColorMatrix type="matrix" values="0 0 0 0 0  0 0 0 0 0  0 0 0 0 0  0 0 0 .4 0"></feColorMatrix> <feOffset dx="0" dy="1"></feOffset> <feGaussianBlur stdDeviation="0.5"></feGaussianBlur> <feComposite in="SourceGraphic"></feComposite></filter></defs><g fill="none" fill-rule="nonzero" stroke="none" stroke-width="none" stroke-linecap="butt" stroke-linejoin="miter" stroke-miterlimit="10" stroke-dasharray="" stroke-dashoffset="0" font-family="none" font-weight="none" font-size="none" text-anchor="none" style="mix-blend-mode: normal"><path d="M2,24c0,-12.15026 9.84974,-22 22,-22c12.15026,0 22,9.84974 22,22c0,12.15026 -9.84974,22 -22,22c-12.15026,0 -22,-9.84974 -22,-22z" id="base 1 5" fill="#03dac5" stroke-width="1"></path><path d="M18.80184,33.52338c-0.15251,-0.15251 -0.24687,-0.36325 -0.24687,-0.59606l0,-1.55084l-0.61149,-0.61149c-0.38164,-0.38164 -0.69965,-0.82682 -0.93674,-1.31842c-0.27894,-0.57828 -0.44591,-1.22079 -0.47277,-1.89968c-0.02389,-0.61193 -0.03763,-1.22435 -0.04026,-1.83628c-0.00119,-0.25944 0.01182,-0.51564 0.03832,-0.76789c0.03224,-0.3071 0.08446,-0.60834 0.15534,-0.90236c-0.11247,-0.48296 -0.20094,-1.03618 -0.23583,-1.65125c-0.0369,-0.65055 0.52549,-1.17303 1.17139,-1.08715c0.11655,0.01549 0.24017,0.03456 0.37008,0.05796c0.32868,-0.41583 0.70379,-0.79337 1.11753,-1.12477l-0.60868,-0.60868c-0.57254,-0.57254 -0.92714,-1.363 -0.92714,-2.23473c0,-1.74343 1.41839,-3.16185 3.16185,-3.16185c0.8717,0 1.66215,0.3546 2.23467,0.92712l3.9821,3.9821c0.95248,0.3522 1.80664,0.90659 2.51075,1.6107l0.60002,0.60002c0.10913,-0.01887 0.2136,-0.03466 0.31293,-0.04786c0.33707,-0.04481 0.65139,0.07605 0.86967,0.29433l12.37107,12.37107c-2.69831,5.30027 -7.48148,9.36128 -13.26921,11.10276z" fill="url(#color-1)" stroke-width="1"></path><path transform="translate(0.55174,0.55174) scale(0.97701,0.97701)" d="M29.57301,33.13723c0,0.47652 -0.38613,0.86262 -0.86223,0.86262h-2.09633c-0.35125,0 -0.66758,-0.21289 -0.79918,-0.53875l-0.18789,-0.46344l-0.23636,-0.58346c-0.92732,0.01758 -1.85469,0.01758 -2.78201,0l-0.23636,0.58346l-0.18789,0.46344c-0.1316,0.32586 -0.44797,0.53875 -0.79918,0.53875h-0.9119c0.00552,0.0001 0.01105,0.00016 0.01659,0.00016h-1.20117c-0.47609,0 -0.86223,-0.38613 -0.86223,-0.86262v-1.68301c-0.67393,-0.48131 -1.22185,-1.12737 -1.58466,-1.87964c-0.2855,-0.59189 -0.4564,-1.24952 -0.48389,-1.94438c-0.02445,-0.62633 -0.03852,-1.25316 -0.04121,-1.87949c-0.00122,-0.26554 0.0121,-0.52777 0.03922,-0.78596c0.033,-0.31433 0.08645,-0.62265 0.159,-0.92359c-0.11512,-0.49432 -0.20567,-1.06056 -0.24138,-1.6901c-0.03777,-0.66586 0.53785,-1.20063 1.19895,-1.11273c0.11929,0.01585 0.24582,0.03537 0.37879,0.05932c0.36255,-0.45867 0.78028,-0.87184 1.24322,-1.22942c-0.99584,-0.55245 -1.67135,-1.61489 -1.67135,-2.83213c0,-1.78445 1.45176,-3.23625 3.23625,-3.23625c1.78445,0 3.23621,1.4518 3.23621,3.23625c0,0.85747 -0.33522,1.63812 -0.88148,2.2178v0.49615c0,0.3107 0.2518,0.56293 0.5625,0.56293h0.84602c0.31066,0 0.5625,-0.25227 0.5625,-0.56293v-1.35281c2.09335,0.12611 3.94124,1.15503 5.16279,2.70041c0.13297,-0.02395 0.25949,-0.04346 0.37878,-0.05931c0.66109,-0.08789 1.23672,0.44687 1.19895,1.11273c-0.0357,0.6295 -0.12625,1.19572 -0.24136,1.69002c0.13215,0.54814 0.20093,1.12076 0.1982,1.70959c-0.00273,0.62637 -0.01676,1.25316 -0.04121,1.87949c-0.06245,1.57809 -0.8644,2.96415 -2.06867,3.82415z" fill="none" stroke-width="0"></path><g id="Capa_1 2" stroke-width="1"><g><g><path d="M29.44489,30.14624v2.78093c0,0.46557 -0.37726,0.84279 -0.8424,0.84279h-2.04814c-0.34318,0 -0.65223,-0.208 -0.78081,-0.52636l-0.18357,-0.45278l-1.07132,-2.64461h4.92623z" fill="#ffcbbe"></path><path d="M23.48138,30.14624l-1.07132,2.64457l-0.18357,0.45278c-0.12858,0.31837 -0.43767,0.52636 -0.78081,0.52636h-2.04814c-0.46515,0 -0.8424,-0.37726 -0.8424,-0.84279v-2.78093z" fill="#ffcbbe"></path><g fill="#eaac9d"><path d="M20.57096,33.77011h-1.17356c-0.46515,0 -0.8424,-0.37726 -0.8424,-0.84279v-2.78093h1.17318v2.78093c0,0.46553 0.37726,0.84279 0.84279,0.84279z"></path><g><path d="M18.55511,30.14624h4.92627l-1.07132,2.64457c-0.4121,-0.00889 -0.82458,-0.02168 -1.23706,-0.03797c-0.97411,-0.03836 -1.8746,-0.36409 -2.61785,-0.89507v-1.71152z"></path><path d="M29.44489,30.14624v1.71152c-0.74325,0.53102 -1.64374,0.85675 -2.61785,0.89507c-0.41248,0.01626 -0.825,0.02904 -1.23706,0.03797l-1.07132,-2.64461h4.92623z"></path></g><path d="M27.51255,33.76996h-0.9582c-0.34318,0 -0.65223,-0.208 -0.78081,-0.52636l-0.18357,-0.45278l-1.07132,-2.64461h0.9582l1.07132,2.64461l0.18357,0.45278c0.12858,0.31837 0.43767,0.52636 0.78081,0.52636z"></path></g><g fill="#ffcbbe"><path d="M31.50627,25.71057c-0.00267,0.61197 -0.01637,1.22435 -0.04026,1.83628c-0.09957,2.51596 -2.12301,4.53234 -4.63897,4.63103c-1.88452,0.07434 -3.76951,0.07434 -5.65403,0c-2.51596,-0.09866 -4.5394,-2.11508 -4.63897,-4.63103c-0.02389,-0.61193 -0.03763,-1.22435 -0.04026,-1.83628c-0.01725,-3.71421 2.87791,-6.76821 6.54342,-6.98899v1.32171c0,0.30356 0.24601,0.54999 0.54957,0.54999h0.82657c0.30352,0 0.54957,-0.24647 0.54957,-0.54999v-1.32171c3.66547,0.22082 6.56063,3.27482 6.54338,6.98899z"></path></g><g fill="#eaac9d"><path d="M22.30794,18.80436c-1.60753,1.11108 -2.7372,3.79782 -2.7288,6.9222c0.00134,0.65311 0.01019,1.30576 0.02523,1.95887c0.0469,2.01283 0.7739,3.72615 1.80178,4.50135c-0.07789,-0.00267 -0.15533,-0.00576 -0.23319,-0.00885c-2.5155,-0.09866 -4.53944,-2.11508 -4.63897,-4.63103c-0.02389,-0.61193 -0.03763,-1.22435 -0.04026,-1.83628c-0.01591,-3.46419 2.50138,-6.35404 5.81421,-6.90625z"></path></g><g><path d="M17.54997,26.26327c0,0 -0.96155,-1.46124 -1.09841,-3.87415c-0.03691,-0.65055 0.52549,-1.17302 1.17138,-1.08715c0.94392,0.12545 2.35128,0.48553 3.81756,1.47975c0,-0.00004 -2.88539,0.70715 -3.89053,3.48156" fill="#eaac9d"></path><path d="M30.45003,26.26327c0,0 0.96155,-1.46124 1.09841,-3.87415c0.03691,-0.65055 -0.52549,-1.17302 -1.17138,-1.08715c-0.94392,0.12545 -2.35128,0.48553 -3.81756,1.47975c0,-0.00004 3.1541,0.75867 3.89053,3.48156z" fill="#ffcbbe"></path></g><g fill="#ffddce"><path d="M29.98957,24.28265c0,0 0.30711,-0.46671 0.35081,-1.23737c0.01179,-0.20777 -0.16785,-0.37466 -0.37413,-0.34722c-0.3015,0.04007 -0.75096,0.15506 -1.21932,0.47263"></path><path d="M18.01043,24.28265c0,0 -0.30711,-0.46671 -0.35081,-1.23737c-0.01179,-0.20777 0.16785,-0.37466 0.37413,-0.34722c0.3015,0.04007 0.75096,0.15506 1.21932,0.47263"></path></g><path d="M24.99663,25.95425c-0.66441,-0.02179 -1.32881,-0.02179 -1.99325,0c-0.97194,0.03187 -1.74511,0.81977 -1.76938,1.7919c-0.00614,0.24528 -0.00614,0.4906 0,0.73589c0.02427,0.97213 0.79749,1.76003 1.76938,1.7919c0.66441,0.02179 1.32881,0.02179 1.99325,0c0.97194,-0.03187 1.74511,-0.81977 1.76938,-1.7919c0.00614,-0.24528 0.00614,-0.4906 0,-0.73589c-0.02427,-0.97213 -0.79749,-1.76003 -1.76938,-1.7919z" fill="#ffddce"></path><g fill="#407093"><path d="M23.27018,28.74304c-0.16044,0 -0.29047,-0.13006 -0.29047,-0.29047v-0.6175c0,-0.16044 0.13003,-0.29047 0.29047,-0.29047c0.16044,0 0.29047,0.13006 0.29047,0.29047v0.6175c0.00004,0.16044 -0.13003,0.29047 -0.29047,0.29047z"></path><path d="M24.72982,28.74304c-0.16044,0 -0.29051,-0.13006 -0.29051,-0.29047v-0.6175c0,-0.16044 0.13003,-0.29047 0.29051,-0.29047c0.16048,0 0.29051,0.13006 0.29051,0.29047v0.6175c-0.00004,0.16044 -0.13006,0.29047 -0.29051,0.29047z"></path></g><g fill="#365e7d"><path d="M19.97613,26.04783c-0.27192,0 -0.49312,0.36722 -0.49312,0.81863c0,0.45141 0.2212,0.81867 0.49312,0.81867c0.27192,0 0.49316,-0.36726 0.49316,-0.81867c0,-0.45141 -0.22124,-0.81863 -0.49316,-0.81863z"></path><path d="M28.02387,26.04783c-0.27192,0 -0.49316,0.36722 -0.49316,0.81863c0,0.45141 0.22124,0.81867 0.49316,0.81867c0.27192,0 0.49312,-0.36726 0.49312,-0.81867c0,-0.45141 -0.2212,-0.81863 -0.49312,-0.81863z"></path></g></g><path d="M17.86521,17.39174c0,-1.5858 1.28554,-2.87134 2.87134,-2.87134c1.5858,0 2.87134,1.28554 2.87134,2.87134c0,1.5858 -1.28554,2.87134 -2.87134,2.87134c-1.5858,0 -2.87134,-1.28554 -2.87134,-2.87134z" fill="#ffd064"></path><path d="M20.73659,20.55359c-1.74347,0 -3.16185,-1.41842 -3.16185,-3.16185c0,-1.74343 1.41838,-3.16185 3.16185,-3.16185c1.74343,0 3.16181,1.41842 3.16181,3.16185c0,1.74343 -1.41842,3.16185 -3.16181,3.16185zM20.73659,14.81087c-1.42308,0 -2.58087,1.15776 -2.58087,2.58087c0,1.42312 1.1578,2.58087 2.58087,2.58087c1.42308,0 2.58084,-1.15776 2.58084,-2.58087c0,-1.42312 -1.15776,-2.58087 -2.58084,-2.58087z" fill="#ffc250"></path><g fill="#e49542"><path d="M20.66011,19.26035c-0.42187,0 -0.68059,-0.0321 -1.10524,-0.26093c-0.14125,-0.0761 -0.19403,-0.25231 -0.11793,-0.39351c0.0761,-0.14125 0.25227,-0.19407 0.39351,-0.11793c0.33234,0.17907 0.48736,0.19334 0.88007,0.19124c0.34016,-0.00187 0.72757,-0.18911 0.77558,-0.53247c0.03149,-0.22517 -0.12587,-0.40538 -0.43168,-0.49442c-0.58922,-0.17159 -0.92812,-0.3052 -1.16963,-0.46122c-0.27597,-0.17823 -0.41279,-0.49671 -0.35703,-0.83111c0.06538,-0.39199 0.3779,-0.71234 0.79626,-0.81615c0.79878,-0.19815 1.33328,0.19838 1.35564,0.21536c0.12774,0.09705 0.15262,0.27929 0.05561,0.40702c-0.09648,0.12697 -0.27719,0.15235 -0.40477,0.05732c-0.01889,-0.01351 -0.35092,-0.24379 -0.86664,-0.11583c-0.23467,0.0582 -0.34138,0.21784 -0.36306,0.34775c-0.01034,0.06186 -0.01114,0.17628 0.09919,0.24757c0.23681,0.15296 0.64689,0.28371 1.01682,0.39142c0.58544,0.17044 0.91702,0.61502 0.84466,1.13268c-0.07129,0.51007 -0.55716,1.02869 -1.34778,1.03304c-0.01817,0.00011 -0.03607,0.00015 -0.05358,0.00015z"></path><path d="M20.71213,19.72451c-0.16044,0 -0.29047,-0.13006 -0.29047,-0.29047v-0.46431c0,-0.16044 0.13003,-0.29047 0.29047,-0.29047c0.16044,0 0.29047,0.13006 0.29047,0.29047v0.46431c0.00004,0.16041 -0.12999,0.29047 -0.29047,0.29047z"></path><path d="M20.71213,16.07095c-0.16044,0 -0.29047,-0.13006 -0.29047,-0.29047v-0.43103c0,-0.16044 0.13003,-0.29047 0.29047,-0.29047c0.16044,0 0.29047,0.13006 0.29047,0.29047v0.43099c0.00004,0.16044 -0.12999,0.29051 -0.29047,0.29051z"></path></g></g></g><path d="M2,24c0,-12.15026 9.84974,-22 22,-22c12.15026,0 22,9.84974 22,22c0,12.15026 -9.84974,22 -22,22c-12.15026,0 -22,-9.84974 -22,-22z" id="base 1 1 1" fill="none" stroke-width="1"></path><g id="Capa_1 1 1" stroke-width="1" font-family="Roboto, sans-serif" font-weight="400" font-size="14" text-anchor="start"><g><g><g fill="#eaac9d"><g></g></g><g fill="#000000"></g><g fill="#000000"></g><g fill="#000000"></g><g fill="#ffddce"></g><g fill="#407093"></g><g fill="#365e7d"></g></g><g fill="#e49542"></g></g></g><rect x="2" y="2" width="44" height="22" fill="none" stroke-width="1"></rect><path d="M2,24v-22h44v22z" fill="none" stroke-width="1"></path><path d="M2,24v-22h44v22z" fill="none" stroke-width="1"></path><path d="M2,24v-22h44v22z" fill="none" stroke-width="1"></path><path d="M2,24v-22h44v22z" fill="none" stroke-width="1"></path></g></svg>